<svg xmlns="http://www.w3.org/2000/svg" xmlns:xlink="http://www.w3.org/1999/xlink" viewBox="0 0 372.29 334.08"><defs><style>.cls-1{fill:#fff;}.cls-2,.cls-5{fill:none;stroke:#fff;stroke-width:5px;}.cls-2{stroke-miterlimit:10;}.cls-3{fill:url(#Degradado_sin_nombre_76);}.cls-4{fill:url(#Degradado_sin_nombre_73);}.cls-5{stroke-linecap:round;stroke-linejoin:round;}</style><linearGradient id="Degradado_sin_nombre_76" x1="-18.7" y1="289.77" x2="45.09" y2="225.99" gradientUnits="userSpaceOnUse"><stop offset="0" stop-color="#fff" stop-opacity="0"/><stop offset="0.5" stop-color="#fff"/></linearGradient><linearGradient id="Degradado_sin_nombre_73" x1="257.41" y1="128.57" x2="286.03" y2="99.95" xlink:href="#Degradado_sin_nombre_76"/></defs><g id="Capa_2" data-name="Capa 2"><g id="logo_light2_copia" data-name="logo_light2 copia"><g id="icono_copia_4" data-name="icono copia 4"><path class="cls-1" d="M169.29,254.66h-7v-11h-14v11h-8v-11h-5v-8h5V183.19a15,15,0,0,1,3.68-10,13.85,13.85,0,0,1,10.24-5,14.77,14.77,0,0,1,15.08,15Zm-7-70.72a6.46,6.46,0,0,0-2.07-4.86,7,7,0,0,0-5-2,6.81,6.81,0,0,0-4.87,2,6.46,6.46,0,0,0-2.07,4.86v51.72h14Z"/><path class="cls-1" d="M205,215.7a16.83,16.83,0,0,1-3.51,4.93,15.18,15.18,0,0,1,3.51,4.8,14.07,14.07,0,0,1,1.29,6v23.22h-8v-23a6.78,6.78,0,0,0-1.77-4.65,7.07,7.07,0,0,0-5.37-2.34h-6.86v30h-8v-30h-4v-8h4v-47h8v47h7a6.66,6.66,0,0,0,4.09-1.33,6.78,6.78,0,0,0,2.91-5.52V169.66h8v40.15A13.76,13.76,0,0,1,205,215.7Z"/><path class="cls-1" d="M248.37,179.86a6.49,6.49,0,0,0-2.08,4.8V200a6.59,6.59,0,0,0,1.41,4.19,7,7,0,0,0,5.72,2.77,13.48,13.48,0,0,1,8.24,2.44q6.63,4.83,6.63,12.2v18.24a15,15,0,0,1-4,10.44,14.68,14.68,0,0,1-11,4.72A14.44,14.44,0,0,1,243,251a15.2,15.2,0,0,1-4.69-11.13V221.66h8v18.57a7,7,0,0,0,11.58,5.28,6.73,6.73,0,0,0,2.42-5.25V221.62q0-3.88-4.12-6.35a3.75,3.75,0,0,0-2.12-.51q-9.24.44-14.71-8.62a7.42,7.42,0,0,1-1.05-3.84V184.66a14,14,0,0,1,4.4-10.32q6.15-6,15.66-3.63a6.21,6.21,0,0,1,1.76.74q8.13,5.06,8.13,13.21h-7.89a6.58,6.58,0,0,0-2.31-5,7,7,0,0,0-4-1.79A6.8,6.8,0,0,0,248.37,179.86Z"/><path class="cls-1" d="M296.29,254.66v-11h-14v11h-8v-11h-4v-8h4v-66h8v66h14v-66h7v85Z"/><path class="cls-1" d="M323.25,170.57a12.92,12.92,0,0,1,6.2,2.67,14.29,14.29,0,0,1,5.84,11.59v55A14.22,14.22,0,0,1,331,250a13.94,13.94,0,0,1-10.24,4.2,13.74,13.74,0,0,1-9.76-3.84,14.63,14.63,0,0,1-4.68-9.41V184.83a13.9,13.9,0,0,1,4.26-10.18A14.21,14.21,0,0,1,323.25,170.57Zm4,13.48a6.62,6.62,0,0,0-1.85-4.64,7.16,7.16,0,0,0-5.16-2.3,7.07,7.07,0,0,0-7,6.94v56.43a6.63,6.63,0,0,0,1.36,4.12,7,7,0,0,0,12.64-4.19Z"/><path class="cls-1" d="M366.63,172.73a14.37,14.37,0,0,1,5.66,11.59v39.8a14.25,14.25,0,0,1-5.61,11.42,14,14,0,0,1-8.95,3.12h-6.44v16h-8v-15h-6v-8h6v-62h14.43A14.09,14.09,0,0,1,366.63,172.73Zm-9.23,58.93a6.85,6.85,0,0,0,6.89-6.86V184.54a6.84,6.84,0,0,0-6.73-6.88h-6.27v54Z"/><line class="cls-2" x1="2.78" y1="183.62" x2="267.26" y2="82.76"/><path class="cls-3" d="M.71,185.86a77.53,77.53,0,0,1,14,23.83,189.4,189.4,0,0,1,7.55,28.63,231.09,231.09,0,0,1,4.14,59.61,197,197,0,0,1-4.92,33c-.75,3.13,4.07,4.46,4.82,1.33a211.92,211.92,0,0,0,5.16-61.19,250.31,250.31,0,0,0-3.71-30.63,213.08,213.08,0,0,0-7.37-29.68A85.35,85.35,0,0,0,4.25,182.32a2.54,2.54,0,0,0-3.54,0,2.56,2.56,0,0,0,0,3.54Z"/><path class="cls-4" d="M277.73,145.1a121.13,121.13,0,0,1-8.36-48,118.35,118.35,0,0,1,1.2-13.69,2.58,2.58,0,0,0-1.74-3.08,2.53,2.53,0,0,0-3.08,1.75,126.28,126.28,0,0,0,2.67,50.61,123.89,123.89,0,0,0,4.49,13.7,2.57,2.57,0,0,0,3.07,1.75,2.52,2.52,0,0,0,1.75-3.08Z"/><path class="cls-5" d="M63.17,190.48,33.77,113.4C18.54,73.48,43.65,26.83,89.85,9.21h0c46-17.52,95.47.46,110.62,40.17L230,126.85"/><circle class="cls-5" cx="63" cy="190.48" r="9.03"/><circle class="cls-5" cx="230.01" cy="126.82" r="9.02"/><path class="cls-1" d="M135.29,269.66h11v4h-4v16h-4v-16h-3Z"/><path class="cls-1" d="M148.29,269.66h4v12.58a6.16,6.16,0,0,0,.3,2.29,2.32,2.32,0,0,0,1,1.08,3.2,3.2,0,0,0,1.65.4,3.31,3.31,0,0,0,1.76-.45,2.39,2.39,0,0,0,1-1.14,8.11,8.11,0,0,0,.28-2.65V269.66h3v11.59a16.91,16.91,0,0,1-.33,4.08,5.72,5.72,0,0,1-1.24,2.19,5.81,5.81,0,0,1-2.12,1.57,7.1,7.1,0,0,1-2.8.51,6.66,6.66,0,0,1-3.63-1,5.58,5.58,0,0,1-2.21-2.43,12.84,12.84,0,0,1-.67-4.94Z"/><path class="cls-1" d="M171.29,269.66h11v4h-3v16h-4v-16h-4Z"/><path class="cls-1" d="M184.29,269.66h4v19h-4Z"/><path class="cls-1" d="M192.29,269.66h11v4h-7v4h7v3h-7v5h7v3h-11Z"/><path class="cls-1" d="M206.29,269.66h3l9,12.5v-12.5h4v19h-3l-9-12.47v12.47h-4Z"/><path class="cls-1" d="M226.29,269.66h4.28a14,14,0,0,1,6.16,1,8,8,0,0,1,3.32,3.34,11.7,11.7,0,0,1,.57,9.43,8.37,8.37,0,0,1-2,3.06,7.21,7.21,0,0,1-2.78,1.67,19.78,19.78,0,0,1-5.19.47h-4.35Zm4,4v12H232a8.37,8.37,0,0,0,3.6-.57,4.27,4.27,0,0,0,1.83-1.92,6.93,6.93,0,0,0,.71-3.31,6.29,6.29,0,0,0-1.69-4.7q-1.53-1.5-4.9-1.5Z"/><path class="cls-1" d="M251.5,269.66h3.67l7.31,19h-3.63l-1.52-3h-7.94l-1.58,3h-3.63Zm1.86,5.32-2.61,6.68H256Z"/><path class="cls-1" d="M282.31,269.31a9.68,9.68,0,0,1,7.1,3,10.37,10.37,0,0,1,0,14.49,10.15,10.15,0,0,1-14.39-.08,10.4,10.4,0,0,1-1.54-12.32,9.86,9.86,0,0,1,3.71-3.71A10,10,0,0,1,282.31,269.31Zm0,3.62a6.12,6.12,0,0,0-4.54,1.88,6.55,6.55,0,0,0-1.84,4.77,6.26,6.26,0,0,0,2.32,5.11,6.4,6.4,0,0,0,4.13,1.46,6,6,0,0,0,4.49-1.9,6.86,6.86,0,0,0,0-9.39A6.06,6.06,0,0,0,282.27,272.93Z"/><path class="cls-1" d="M295.29,269.66h3l9,12.5v-12.5h4v19h-3l-9-12.47v12.47h-4Z"/><path class="cls-1" d="M316.29,269.66h4v16h5v3h-9Z"/><path class="cls-1" d="M327.29,269.66h4v19h-4Z"/><path class="cls-1" d="M335.29,269.66h3l9,12.5v-12.5h4v19h-3l-9-12.47v12.47h-4Z"/><path class="cls-1" d="M355.29,269.66h11v4h-7v4h7v3h-7v5h7v3h-11Z"/></g></g></g></svg>