<svg xmlns="http://www.w3.org/2000/svg" viewBox="0 0 237 86.84"><defs><style>.cls-1{fill:#fff;}</style></defs><g id="Capa_2" data-name="Capa 2"><g id="logo_light2_copia" data-name="logo_light2 copia"><g id="icono_copia_4" data-name="icono copia 4"><path class="cls-1" d="M34,86.48H27v-11H13v11H5v-11H0v-8H5V15A15.07,15.07,0,0,1,8.68,5,13.83,13.83,0,0,1,18.91,0,14.77,14.77,0,0,1,34,15ZM27,15.75a6.46,6.46,0,0,0-2.07-4.86,7,7,0,0,0-5-2,6.81,6.81,0,0,0-4.87,2A6.46,6.46,0,0,0,13,15.75V67.48H27Z"/><path class="cls-1" d="M69.71,47.51a16.57,16.57,0,0,1-3.51,4.93,15.34,15.34,0,0,1,3.51,4.81,14,14,0,0,1,1.29,6V86.48H63v-23a6.78,6.78,0,0,0-1.78-4.65,7.06,7.06,0,0,0-5.36-2.33H49v30H41v-30H37v-8h4v-47h8v47h7a7,7,0,0,0,7-6.86V1.48h8V41.62A13.73,13.73,0,0,1,69.71,47.51Z"/><path class="cls-1" d="M113.08,11.68a6.49,6.49,0,0,0-2.08,4.8V31.83A6.57,6.57,0,0,0,112.41,36a6.92,6.92,0,0,0,5.72,2.77,13.42,13.42,0,0,1,8.24,2.45Q133,46.07,133,53.44V71.68a15,15,0,0,1-4,10.44,14.72,14.72,0,0,1-11,4.72,14.48,14.48,0,0,1-10.25-4.06A15.22,15.22,0,0,1,103,71.65V53.48h8V72.05a7,7,0,0,0,7.66,7,6.93,6.93,0,0,0,3.92-1.67A6.76,6.76,0,0,0,125,72.08V53.44c0-2.6-1.37-4.71-4.12-6.36a3.74,3.74,0,0,0-2.12-.5Q109.52,47,104.05,38a7.38,7.38,0,0,1-1-3.83V16.48a14,14,0,0,1,4.4-10.32q6.15-6,15.66-3.64a6.17,6.17,0,0,1,1.75.75q8.13,5.06,8.14,13.21h-7.9a6.57,6.57,0,0,0-2.3-5,7,7,0,0,0-4-1.79A6.79,6.79,0,0,0,113.08,11.68Z"/><path class="cls-1" d="M161,86.48v-11H147v11h-8v-11h-4v-8h4v-66h8v66h14v-66h7v85Z"/><path class="cls-1" d="M188,2.39a12.83,12.83,0,0,1,6.2,2.67A14.28,14.28,0,0,1,200,16.65v55a14.24,14.24,0,0,1-4.32,10.12A13.94,13.94,0,0,1,185.44,86a13.7,13.7,0,0,1-9.76-3.85A14.61,14.61,0,0,1,171,72.75V16.65a13.89,13.89,0,0,1,4.26-10.18A14.21,14.21,0,0,1,188,2.39Zm4,13.47a6.63,6.63,0,0,0-1.85-4.64A7.15,7.15,0,0,0,185,8.93,6.6,6.6,0,0,0,180.07,11,6.65,6.65,0,0,0,178,15.86V72.29a6.63,6.63,0,0,0,1.36,4.13A7,7,0,0,0,192,72.23Z"/><path class="cls-1" d="M231.34,4.55A14.36,14.36,0,0,1,237,16.13V55.94a14.25,14.25,0,0,1-5.61,11.42,14,14,0,0,1-8.95,3.12H216v16h-8v-15h-6v-8h6v-62h14.43A14.11,14.11,0,0,1,231.34,4.55Zm-9.23,58.93A6.85,6.85,0,0,0,229,56.62V16.36a6.65,6.65,0,0,0-1.27-4,6.56,6.56,0,0,0-5.46-2.87H216v54Z"/></g></g></g></svg>