<svg id="logo_light2" xmlns="http://www.w3.org/2000/svg" xmlns:xlink="http://www.w3.org/1999/xlink" viewBox="0 0 500 500"><defs><style>.cls-1{fill:#312555;}.cls-2{fill:#f49743;}.cls-2,.cls-4,.cls-7{stroke:#fff;stroke-width:5px;}.cls-2,.cls-4{stroke-miterlimit:10;}.cls-3{fill:#fff;}.cls-4,.cls-7{fill:none;}.cls-5{fill:url(#Degradado_sin_nombre_76);}.cls-6{fill:url(#Degradado_sin_nombre_73);}.cls-7{stroke-linecap:round;stroke-linejoin:round;}</style><linearGradient id="Degradado_sin_nombre_76" x1="58.01" y1="356.11" x2="121.79" y2="292.33" gradientUnits="userSpaceOnUse"><stop offset="0" stop-color="#fff" stop-opacity="0"/><stop offset="0.5" stop-color="#fff"/></linearGradient><linearGradient id="Degradado_sin_nombre_73" x1="334.12" y1="194.91" x2="362.74" y2="166.29" xlink:href="#Degradado_sin_nombre_76"/></defs><g id="fondo_copia_3" data-name="fondo copia 3"><circle class="cls-1" cx="250" cy="250" r="250"/><circle class="cls-2" cx="258" cy="258" r="230"/></g><g id="icono_copia_3" data-name="icono copia 3"><path class="cls-3" d="M246,321h-7V310H225v11h-8V310h-5v-8h5V249.53a15,15,0,0,1,3.68-10,13.88,13.88,0,0,1,10.23-5,14.77,14.77,0,0,1,15.09,15Zm-7-70.72a6.46,6.46,0,0,0-2.07-4.86,7,7,0,0,0-5-2,6.81,6.81,0,0,0-4.87,2,6.46,6.46,0,0,0-2.07,4.86V302h14Z"/><path class="cls-3" d="M281.71,282A16.83,16.83,0,0,1,278.2,287a15.18,15.18,0,0,1,3.51,4.8,14.07,14.07,0,0,1,1.29,6V321h-8V298a6.74,6.74,0,0,0-1.78-4.65,7,7,0,0,0-5.36-2.34H261v30h-8V291h-4v-8h4V236h8v47h7a6.7,6.7,0,0,0,4.09-1.33,6.77,6.77,0,0,0,2.91-5.52V236h8v40.15A13.76,13.76,0,0,1,281.71,282Z"/><path class="cls-3" d="M325.08,246.2A6.49,6.49,0,0,0,323,251v15.36a6.59,6.59,0,0,0,1.41,4.19,6.94,6.94,0,0,0,5.72,2.77,13.48,13.48,0,0,1,8.24,2.44Q345,280.59,345,288V306.2a15.07,15.07,0,0,1-4,10.45,14.71,14.71,0,0,1-11,4.71,14.47,14.47,0,0,1-10.25-4.05A15.24,15.24,0,0,1,315,306.17V288h8v18.57a7,7,0,0,0,11.58,5.28A6.73,6.73,0,0,0,337,306.6V288q0-3.88-4.12-6.35a3.83,3.83,0,0,0-2.12-.51q-9.24.43-14.71-8.62a7.42,7.42,0,0,1-1.05-3.84V251a14,14,0,0,1,4.4-10.32q6.15-6,15.66-3.63a6.15,6.15,0,0,1,1.75.74q8.13,5.06,8.14,13.21h-7.9a6.57,6.57,0,0,0-2.3-5,6.93,6.93,0,0,0-4-1.78A6.76,6.76,0,0,0,325.08,246.2Z"/><path class="cls-3" d="M373,321V310H359v11h-8V310h-4v-8h4V236h8v66h14V236h7v85Z"/><path class="cls-3" d="M400,236.91a12.92,12.92,0,0,1,6.2,2.67A14.29,14.29,0,0,1,412,251.17v55a14.22,14.22,0,0,1-4.32,10.12,13.94,13.94,0,0,1-10.24,4.2,13.74,13.74,0,0,1-9.76-3.84,14.63,14.63,0,0,1-4.68-9.41V251.17A13.9,13.9,0,0,1,387.26,241,14.21,14.21,0,0,1,400,236.91Zm4,13.48a6.63,6.63,0,0,0-1.85-4.64,7.16,7.16,0,0,0-5.16-2.3,7.07,7.07,0,0,0-7,6.94v56.43a6.63,6.63,0,0,0,1.36,4.12A7,7,0,0,0,404,306.75Z"/><path class="cls-3" d="M443.34,239.07A14.37,14.37,0,0,1,449,250.66v39.8a14.25,14.25,0,0,1-5.61,11.42,14,14,0,0,1-8.95,3.12H428v16h-8V306h-6v-8h6V236h14.43A14.11,14.11,0,0,1,443.34,239.07ZM434.11,298a6.85,6.85,0,0,0,6.89-6.86V250.88a6.69,6.69,0,0,0-1.27-4,6.58,6.58,0,0,0-5.46-2.87H428v54Z"/><line class="cls-4" x1="79.49" y1="249.97" x2="343.97" y2="149.1"/><path class="cls-5" d="M77.42,252.2A77.53,77.53,0,0,1,91.4,276,190.59,190.59,0,0,1,99,304.66a231.54,231.54,0,0,1,4.14,59.61,197,197,0,0,1-4.92,33c-.75,3.13,4.07,4.47,4.82,1.33a211.88,211.88,0,0,0,5.16-61.18,250.24,250.24,0,0,0-3.71-30.64,213.08,213.08,0,0,0-7.37-29.68A85.35,85.35,0,0,0,81,248.66a2.54,2.54,0,0,0-3.54,0,2.56,2.56,0,0,0,0,3.54Z"/><path class="cls-6" d="M354.44,211.44a121.13,121.13,0,0,1-8.36-48,118.35,118.35,0,0,1,1.2-13.69,2.59,2.59,0,0,0-1.74-3.08,2.53,2.53,0,0,0-3.08,1.75,126.28,126.28,0,0,0,2.67,50.61,123.89,123.89,0,0,0,4.49,13.7,2.57,2.57,0,0,0,3.07,1.75,2.52,2.52,0,0,0,1.75-3.08Z"/><path class="cls-7" d="M139.88,256.82l-29.4-77.08c-15.23-39.92,9.88-86.57,56.08-104.19h0C212.51,58,262,76,277.18,115.72l29.54,77.47"/><circle class="cls-7" cx="139.71" cy="256.82" r="9.03"/><circle class="cls-7" cx="306.72" cy="193.16" r="9.02"/><path class="cls-3" d="M212,336h11v4h-4v16h-4V340h-3Z"/><path class="cls-3" d="M225,336h4v12.58a6.16,6.16,0,0,0,.3,2.29,2.32,2.32,0,0,0,1,1.08,3.2,3.2,0,0,0,1.65.4,3.31,3.31,0,0,0,1.76-.45,2.35,2.35,0,0,0,1-1.14,8.11,8.11,0,0,0,.28-2.65V336h3v11.59a16.91,16.91,0,0,1-.33,4.08,5.72,5.72,0,0,1-1.24,2.19,5.81,5.81,0,0,1-2.12,1.57,7.14,7.14,0,0,1-2.8.51,6.66,6.66,0,0,1-3.63-1,5.53,5.53,0,0,1-2.21-2.43,12.84,12.84,0,0,1-.67-4.94Z"/><path class="cls-3" d="M248,336h11v4h-3v16h-4V340h-4Z"/><path class="cls-3" d="M261,336h4v19h-4Z"/><path class="cls-3" d="M269,336h11v4h-7v4h7v3h-7v5h7v3H269Z"/><path class="cls-3" d="M283,336h3l9,12.5V336h4v19h-3l-9-12.46V355h-4Z"/><path class="cls-3" d="M303,336h4.28a14,14,0,0,1,6.16,1,8,8,0,0,1,3.32,3.34,11.7,11.7,0,0,1,.57,9.43,8.5,8.5,0,0,1-2,3.06,7.19,7.19,0,0,1-2.78,1.68,19.89,19.89,0,0,1-5.19.46H303Zm4,4v12h1.68a8.37,8.37,0,0,0,3.6-.57,4.27,4.27,0,0,0,1.83-1.92,6.93,6.93,0,0,0,.71-3.31,6.31,6.31,0,0,0-1.69-4.7q-1.53-1.5-4.9-1.5Z"/><path class="cls-3" d="M328.21,336h3.67l7.31,19h-3.63L334,352H326.1l-1.58,3h-3.63Zm1.86,5.32L327.46,348h5.2Z"/><path class="cls-3" d="M359,335.65a9.68,9.68,0,0,1,7.1,3,10.37,10.37,0,0,1,0,14.49,10.15,10.15,0,0,1-14.39-.08,10.06,10.06,0,0,1-2.89-7.19,10.18,10.18,0,0,1,1.34-5.13,10.21,10.21,0,0,1,8.8-5.08Zm0,3.62a6.12,6.12,0,0,0-4.54,1.88,6.55,6.55,0,0,0-1.84,4.77,6.26,6.26,0,0,0,2.32,5.11,6.4,6.4,0,0,0,4.13,1.46,6,6,0,0,0,4.48-1.9,6.84,6.84,0,0,0,0-9.39A6.06,6.06,0,0,0,359,339.27Z"/><path class="cls-3" d="M372,336h3l9,12.5V336h4v19h-3l-9-12.46V355h-4Z"/><path class="cls-3" d="M393,336h4v16h5v3h-9Z"/><path class="cls-3" d="M404,336h4v19h-4Z"/><path class="cls-3" d="M412,336h3l9,12.5V336h4v19h-3l-9-12.46V355h-4Z"/><path class="cls-3" d="M432,336h11v4h-7v4h7v3h-7v5h7v3H432Z"/></g></svg>